<?xml version="1.0" encoding="utf-8"?>
<!-- Generator: Adobe Illustrator 26.5.0, SVG Export Plug-In . SVG Version: 6.00 Build 0)  -->
<svg version="1.1" id="Ñëîé_1" xmlns="http://www.w3.org/2000/svg" xmlns:xlink="http://www.w3.org/1999/xlink" x="0px" y="0px"
	 viewBox="0 0 512 512" style="enable-background:new 0 0 512 512;" xml:space="preserve">
<style type="text/css">
	.st0{fill:#231E1F;}
	.st1{fill:#EC002B;}
</style>
<g id="XMLID_19_">
	<path id="XMLID_21_" d="M389.89,213.39v66.68c0,4.43,2.08,6.5,6.5,6.78h22c0,0,0,7.19,0,7.47c0,0.83-0.42,1.52-1.38,1.52
		c-0.28,0-35.69,0-35.69,0c-10.93,0-12.45-6.09-12.45-11.62v-66.27c0-3.18,1.11-4.7,4.84-4.57H389.89"/>
	<path id="XMLID_25_" d="M348.95,213.39v77.89c0,3.46-1.52,4.43-4.43,4.43h-16.74v-78.02c0-2.49,1.11-4.29,4.84-4.29L348.95,213.39"
		/>
	<path id="XMLID_26_" d="M0.05,224.73c0-6.23,0-11.34,10.24-11.34h45.38v7.89c0,0.55-0.28,1.11-1.11,1.11H27.44
		c-3.74,0-5.4,1.8-5.4,5.4v20.89H54v8.44c0,0.69-0.55,1.11-1.25,1.11H22.05v33.2c-0.14,3.18-1.8,4.43-5.26,4.43H0.05V224.73"/>
	<path id="XMLID_27_" d="M88.31,213.39v62.81c0,5.26,0.83,9.13,4.57,11.34c5.12,2.91,13.7,2.91,18.95,0.14
		c3.46-1.94,4.98-5.26,4.98-11.48v-58.66c0-2.63,0.97-4.15,4.7-4.15h16.32v60.87c0,14.11-8.85,19.92-16.74,22.13
		c-10.51,2.77-26.42,2.91-36.38-0.14c-11.9-3.46-17.29-10.51-17.29-22V217.4c0-2.63,0.97-4.15,4.15-4.15h16.74"/>
	<path id="XMLID_28_" d="M88.31,213.39v62.81c0,5.26,0.83,9.13,4.57,11.34c5.12,2.91,13.7,2.91,18.95,0.14
		c3.46-1.94,4.98-5.26,4.98-11.48v-58.66c0-2.63,0.97-4.15,4.7-4.15h16.32v60.87c0,14.11-8.85,19.92-16.74,22.13
		c-10.51,2.77-26.42,2.91-36.38-0.14c-11.9-3.46-17.29-10.51-17.29-22V217.4c0-2.63,0.97-4.15,4.15-4.15h16.74V213.39z"/>
	<path id="XMLID_31_" class="st0" d="M102.7,298.75c-6.64,0-13.14-0.69-17.98-2.21c-11.9-3.46-17.43-10.51-17.43-22.13v-56.86
		c0-3.04,1.25-4.29,4.29-4.29h17.02v63.08c0,5.12,0.69,8.99,4.43,11.07c4.98,2.91,13.56,2.91,18.68,0.14
		c3.46-1.94,4.84-5.12,4.84-11.21v-58.66c0-2.63,0.83-4.29,4.84-4.29h16.6v61.15c0,15.36-10.65,20.61-16.88,22.27
		C115.7,298.06,109.06,298.75,102.7,298.75z M71.43,213.67c-2.77,0-3.87,1.11-3.87,3.87v56.86c0,11.34,5.4,18.26,17.15,21.72
		c9.55,2.91,25.32,3.04,36.25,0.14c6.23-1.66,16.6-6.78,16.6-21.86v-60.73h-16.19c-3.74,0-4.43,1.38-4.43,3.87v58.66
		c0,6.23-1.52,9.55-4.98,11.62c-5.26,2.91-14.11,2.77-19.09-0.14c-3.87-2.21-4.7-6.23-4.7-11.48v-62.53L71.43,213.67L71.43,213.67z"
		/>
	<path id="XMLID_32_" d="M487.56,213.39c-4.29,0-6.5,1.8-7.47,5.53l-13.56,56.86h-0.28l-13.97-62.39h-18.95
		c-3.74,0-4.84,1.8-4.84,4.84v77.61h8.02c1.25,0,1.8-0.69,1.8-1.94v-65.02h1.38l17.15,67.1h11.34c4.15,0,5.67-1.8,6.78-5.95
		l15.49-61.01h1.25v67.1h15.08c3.6,0,5.26-1.52,5.26-5.12v-77.33h-24.49"/>
	<path id="XMLID_33_" d="M238,258.08h-21.17c0,18.68,0,37.63,0,37.63h16.74c2.91,0,4.43-0.97,4.43-4.43
		C238,291.42,238,275.23,238,258.08"/>
	<path id="XMLID_34_" class="st1" d="M236.89,242.03c0.69-0.55,1.25-1.11,1.25-2.21c0-8.3,0-26.28,0-26.28h-16.32
		c-3.74,0-4.84,1.8-4.84,4.43c0,0,0,19.92,0,39.84L236.89,242.03"/>
	<path id="XMLID_36_" d="M164.4,289.2c9.13-1.38,12.17-6.78,12.17-14.8v-56.72c0-3.32,1.8-4.43,4.15-4.43h16.88v53.54
		c0,13.14-2.63,19.78-10.51,25.45c-4.15,2.91-11.21,6.23-26.42,6.23c-8.85,0-12.73-0.55-13.28-0.69c-0.83-0.14-1.11-0.55-1.11-1.25
		c0,0,0-5.26,0-6.92C150.01,289.89,158.31,290.17,164.4,289.2"/>
	<path id="XMLID_37_" d="M269.95,213.39c-10.24,0-10.24,5.12-10.24,11.34v21.17c0,0.55-0.14,0.69-0.42,0.97l-14.39,11.34h14.8v37.63
		h16.74c3.46,0,5.12-1.25,5.26-4.43v-33.2h30.71c0.83,0,1.25-0.42,1.25-1.11v-8.44h-31.96v-20.89c0-3.74,1.8-5.4,5.4-5.4h27.11
		c0.83,0,1.11-0.55,1.11-1.11v-7.89L269.95,213.39"/>
</g>
</svg>
